{"asset":{"generator":"Tripo","version":"2.0"},"scene":0,"scenes":[{"name":"Scene","nodes":[0]}],"nodes":[{"mesh":0,"name":"tripo_node_ee6045a7-7316-4591-93a7-d0abdcf67b0d"}],"materials":[{"name":"tripo_mat_ee6045a7-7316-4591-93a7-d0abdcf67b0d","normalTexture":{"index":0},"pbrMetallicRoughness":{"baseColorTexture":{"index":1},"metallicRoughnessTexture":{"index":2}}}],"meshes":[{"name":"tripo_mesh_ee6045a7-7316-4591-93a7-d0abdcf67b0d","primitives":[{"attributes":{"POSITION":0,"NORMAL":1,"TEXCOORD_0":2},"indices":3,"material":0}]}],"textures":[{"sampler":0,"source":0},{"sampler":0,"source":1},{"sampler":0,"source":2}],"images":[{"bufferView":4,"mimeType":"image/jpeg","name":"engraved_stone_3d_model_normal"},{"bufferView":5,"mimeType":"image/jpeg","name":"engraved_stone_3d_model_basecolor"},{"bufferView":6,"mimeType":"image/jpeg","name":"engraved_stone_3d_model_rm"}],"accessors":[{"bufferView":0,"componentType":5126,"count":905287,"max":[0.1808013916015625,1,0.197723388671875],"min":[-0.1808013916015625,0,-0.197723388671875],"type":"VEC3"},{"bufferView":1,"componentType":5126,"count":905287,"type":"VEC3"},{"bufferView":2,"componentType":5126,"count":905287,"type":"VEC2"},{"bufferView":3,"componentType":5125,"count":4421928,"type":"SCALAR"}],"bufferViews":[{"buffer":0,"byteLength":10863444,"byteOffset":0,"target":34962},{"buffer":1,"byteLength":10863444,"byteOffset":0,"target":34962},{"buffer":2,"byteLength":7242296,"byteOffset":0,"target":34962},{"buffer":3,"byteLength":17687712,"byteOffset":0,"target":34963},{"buffer":4,"byteLength":607763,"byteOffset":0},{"buffer":5,"byteLength":1189447,"byteOffset":0},{"buffer":6,"byteLength":513444,"byteOffset":0}],"samplers":[{"magFilter":9729,"minFilter":9987}],"buffers":[{"uri":"fragment-00.bin","byteLength":10863444},{"uri":"fragment-01.bin","byteLength":10863444},{"uri":"fragment-02.bin","byteLength":7242296},{"uri":"fragment-03.bin","byteLength":17687712},{"uri":"fragment-04.bin","byteLength":607763},{"uri":"fragment-05.bin","byteLength":1189447},{"uri":"fragment-06.bin","byteLength":513444}]}