{"asset":{"version":"2.0","generator":"Tripo"},"extensionsUsed":["KHR_materials_volume","FB_ngon_encoding"],"accessors":[{"bufferView":3,"byteOffset":0,"componentType":5126,"count":1016585,"type":"VEC3","max":[0.349151611328125,0.979705810546875,0.08192063122987747],"min":[-0.349151611328125,0,-0.08192063122987747]},{"bufferView":4,"byteOffset":0,"componentType":5126,"count":1016585,"type":"VEC3","max":[1,1,1],"min":[-1,-1,-1]},{"bufferView":5,"byteOffset":0,"componentType":5126,"count":1016585,"type":"VEC2","max":[1,1],"min":[0,0]},{"bufferView":6,"byteOffset":0,"componentType":5125,"count":5875383,"type":"SCALAR","max":[1016584],"min":[0]}],"buffers":[{"uri":"floral-00.bin","byteLength":2460590},{"uri":"floral-01.bin","byteLength":408261},{"uri":"floral-02.bin","byteLength":870307},{"uri":"floral-03.bin","byteLength":12199020},{"uri":"floral-04.bin","byteLength":12199020},{"uri":"floral-05.bin","byteLength":8132680},{"uri":"floral-06.bin","byteLength":23501532}],"bufferViews":[{"buffer":0,"byteOffset":0,"byteLength":2460590},{"buffer":1,"byteOffset":0,"byteLength":408261},{"buffer":2,"byteOffset":0,"byteLength":870307},{"buffer":3,"byteOffset":0,"byteLength":12199020,"target":34962},{"buffer":4,"byteOffset":0,"byteLength":12199020,"target":34962},{"buffer":5,"byteOffset":0,"byteLength":8132680,"target":34962},{"buffer":6,"byteOffset":0,"byteLength":23501532,"target":34963}],"images":[{"name":"222_basecolor.jpg","bufferView":0,"mimeType":"image/jpeg"},{"name":"222_rm.jpg","bufferView":1,"mimeType":"image/jpeg"},{"name":"222_normal.jpg","bufferView":2,"mimeType":"image/jpeg"}],"materials":[{"name":"tripo_material_bc138a6f-9949-4289-9898-c64e781eb1e2","pbrMetallicRoughness":{"baseColorTexture":{"index":0},"metallicRoughnessTexture":{"index":1}},"normalTexture":{"index":2}}],"meshes":[{"name":"meshes[0]","primitives":[{"mode":4,"material":0,"indices":3,"attributes":{"POSITION":0,"NORMAL":1,"TEXCOORD_0":2}}]}],"nodes":[{"name":"tripo_node_bc138a6f-9949-4289-9898-c64e781eb1e2","mesh":0}],"samplers":[{},{},{}],"scenes":[{"nodes":[0]}],"textures":[{"source":0,"sampler":0},{"source":1,"sampler":1},{"source":2,"sampler":2}],"scene":0}