{
	"asset":{
		"generator":"Khronos glTF Blender I/O v5.2.40",
		"version":"2.0"
	},
	"extensionsUsed":[
		"KHR_materials_specular"
	],
	"scene":0,
	"scenes":[
		{
			"name":"Scene",
			"nodes":[
				0,
				1,
				2,
				3,
				4,
				5,
				6,
				7,
				8,
				9
			]
		}
	],
	"nodes":[
		{
			"mesh":0,
			"name":"01 | Arched stele, carved crest and inscription"
		},
		{
			"mesh":1,
			"name":"02 | Lower stone foot",
			"translation":[
				0,
				0.054999999701976776,
				0
			]
		},
		{
			"mesh":2,
			"name":"03 | Lower beveled course",
			"translation":[
				0,
				0.12399999797344208,
				0
			]
		},
		{
			"mesh":3,
			"name":"04 | Pedestal panel body",
			"translation":[
				0,
				0.2290000021457672,
				0
			]
		},
		{
			"mesh":4,
			"name":"05 | Upper fine molding",
			"translation":[
				0,
				0.3269999921321869,
				0
			]
		},
		{
			"mesh":5,
			"name":"06 | Overhanging stone cap",
			"translation":[
				0,
				0.36500000953674316,
				0
			]
		},
		{
			"mesh":6,
			"name":"Pedestal | recessed panel outline"
		},
		{
			"mesh":7,
			"name":"Pedestal | recessed panel outline.001"
		},
		{
			"mesh":8,
			"name":"Pedestal | recessed panel outline.002"
		},
		{
			"mesh":9,
			"name":"Pedestal | recessed panel outline.003"
		}
	],
	"materials":[
		{
			"doubleSided":true,
			"extensions":{
				"KHR_materials_specular":{
					"specularFactor":0.5
				}
			},
			"name":"Weathered stone | incised face",
			"normalTexture":{
				"index":0
			},
			"pbrMetallicRoughness":{
				"baseColorTexture":{
					"index":1
				},
				"metallicFactor":0,
				"metallicRoughnessTexture":{
					"index":2
				}
			}
		},
		{
			"doubleSided":true,
			"extensions":{
				"KHR_materials_specular":{
					"specularFactor":0.5
				}
			},
			"name":"Weathered stone | unique side and pedestal atlas",
			"normalTexture":{
				"index":3
			},
			"pbrMetallicRoughness":{
				"baseColorTexture":{
					"index":4
				},
				"metallicFactor":0,
				"metallicRoughnessTexture":{
					"index":5
				}
			}
		},
		{
			"doubleSided":true,
			"extensions":{
				"KHR_materials_specular":{
					"specularFactor":0.5
				}
			},
			"name":"Weathered stone | unique full-height rear",
			"normalTexture":{
				"index":6
			},
			"pbrMetallicRoughness":{
				"baseColorTexture":{
					"index":7
				},
				"metallicFactor":0,
				"metallicRoughnessTexture":{
					"index":8
				}
			}
		}
	],
	"meshes":[
		{
			"name":"Closed stele mesh | sculpted face, stone thickness",
			"primitives":[
				{
					"attributes":{
						"POSITION":0,
						"NORMAL":1,
						"TEXCOORD_0":2
					},
					"indices":3,
					"material":0
				},
				{
					"attributes":{
						"POSITION":4,
						"NORMAL":5,
						"TEXCOORD_0":6
					},
					"indices":7,
					"material":1
				},
				{
					"attributes":{
						"POSITION":8,
						"NORMAL":9,
						"TEXCOORD_0":10
					},
					"indices":11,
					"material":2
				}
			]
		},
		{
			"name":"Cube.001",
			"primitives":[
				{
					"attributes":{
						"POSITION":12,
						"NORMAL":13,
						"TEXCOORD_0":14
					},
					"indices":15,
					"material":1
				}
			]
		},
		{
			"name":"Cube.002",
			"primitives":[
				{
					"attributes":{
						"POSITION":16,
						"NORMAL":17,
						"TEXCOORD_0":18
					},
					"indices":19,
					"material":1
				}
			]
		},
		{
			"name":"Cube.003",
			"primitives":[
				{
					"attributes":{
						"POSITION":20,
						"NORMAL":21,
						"TEXCOORD_0":22
					},
					"indices":23,
					"material":1
				}
			]
		},
		{
			"name":"Cube.004",
			"primitives":[
				{
					"attributes":{
						"POSITION":24,
						"NORMAL":25,
						"TEXCOORD_0":26
					},
					"indices":27,
					"material":1
				}
			]
		},
		{
			"name":"Cube.005",
			"primitives":[
				{
					"attributes":{
						"POSITION":28,
						"NORMAL":29,
						"TEXCOORD_0":30
					},
					"indices":31,
					"material":1
				}
			]
		},
		{
			"name":"Pedestal | recessed panel outline",
			"primitives":[
				{
					"attributes":{
						"POSITION":32,
						"NORMAL":33,
						"TEXCOORD_0":34
					},
					"indices":35,
					"material":1
				}
			]
		},
		{
			"name":"Pedestal | recessed panel outline.001",
			"primitives":[
				{
					"attributes":{
						"POSITION":36,
						"NORMAL":37,
						"TEXCOORD_0":38
					},
					"indices":39,
					"material":1
				}
			]
		},
		{
			"name":"Pedestal | recessed panel outline.002",
			"primitives":[
				{
					"attributes":{
						"POSITION":40,
						"NORMAL":41,
						"TEXCOORD_0":42
					},
					"indices":43,
					"material":1
				}
			]
		},
		{
			"name":"Pedestal | recessed panel outline.003",
			"primitives":[
				{
					"attributes":{
						"POSITION":44,
						"NORMAL":45,
						"TEXCOORD_0":46
					},
					"indices":47,
					"material":1
				}
			]
		}
	],
	"textures":[
		{
			"sampler":0,
			"source":0
		},
		{
			"sampler":0,
			"source":1
		},
		{
			"sampler":0,
			"source":2
		},
		{
			"sampler":1,
			"source":3
		},
		{
			"sampler":1,
			"source":4
		},
		{
			"sampler":1,
			"source":5
		},
		{
			"sampler":1,
			"source":6
		},
		{
			"sampler":1,
			"source":7
		},
		{
			"sampler":1,
			"source":8
		}
	],
	"images":[
		{
			"mimeType":"image/png",
			"name":"front-normal",
			"uri":"front-normal.png"
		},
		{
			"mimeType":"image/png",
			"name":"front-color",
			"uri":"front-color.png"
		},
		{
			"mimeType":"image/png",
			"name":"front-roughness",
			"uri":"front-roughness.png"
		},
		{
			"mimeType":"image/png",
			"name":"stone-normal-v3",
			"uri":"stone-normal-v3.png"
		},
		{
			"mimeType":"image/png",
			"name":"stone-atlas-v3",
			"uri":"stone-atlas-v3.png"
		},
		{
			"mimeType":"image/png",
			"name":"stone-roughness-v3",
			"uri":"stone-roughness-v3.png"
		},
		{
			"mimeType":"image/png",
			"name":"back-normal-v2",
			"uri":"back-normal-v2.png"
		},
		{
			"mimeType":"image/png",
			"name":"back-color-v2",
			"uri":"back-color-v2.png"
		},
		{
			"mimeType":"image/png",
			"name":"back-roughness-v2",
			"uri":"back-roughness-v2.png"
		}
	],
	"accessors":[
		{
			"bufferView":0,
			"componentType":5126,
			"count":81631,
			"max":[
				0.4529668986797333,
				2.430000066757202,
				0.14814670383930206
			],
			"min":[
				-0.45349955558776855,
				0.3799999952316284,
				0.0770016461610794
			],
			"type":"VEC3"
		},
		{
			"bufferView":1,
			"componentType":5126,
			"count":81631,
			"type":"VEC3"
		},
		{
			"bufferView":2,
			"componentType":5126,
			"count":81631,
			"type":"VEC2"
		},
		{
			"bufferView":3,
			"componentType":5125,
			"count":486000,
			"type":"SCALAR"
		},
		{
			"bufferView":4,
			"componentType":5126,
			"count":14980,
			"max":[
				0.453290194272995,
				2.430168628692627,
				0.13047181069850922
			],
			"min":[
				-0.45401591062545776,
				0.37957000732421875,
				-0.1080000028014183
			],
			"type":"VEC3"
		},
		{
			"bufferView":5,
			"componentType":5126,
			"count":14980,
			"type":"VEC3"
		},
		{
			"bufferView":6,
			"componentType":5126,
			"count":14980,
			"type":"VEC2"
		},
		{
			"bufferView":7,
			"componentType":5123,
			"count":22680,
			"type":"SCALAR"
		},
		{
			"bufferView":8,
			"componentType":5126,
			"count":1261,
			"max":[
				0.4513302445411682,
				2.429950475692749,
				-0.1080000028014183
			],
			"min":[
				-0.4519210159778595,
				0.37957000732421875,
				-0.1080000028014183
			],
			"type":"VEC3"
		},
		{
			"bufferView":9,
			"componentType":5126,
			"count":1261,
			"type":"VEC3"
		},
		{
			"bufferView":10,
			"componentType":5126,
			"count":1261,
			"type":"VEC2"
		},
		{
			"bufferView":11,
			"componentType":5123,
			"count":3780,
			"type":"SCALAR"
		},
		{
			"bufferView":12,
			"componentType":5126,
			"count":6502,
			"max":[
				0.6009316444396973,
				0.05562474578619003,
				0.28589928150177
			],
			"min":[
				-0.6009748578071594,
				-0.055971767753362656,
				-0.28602319955825806
			],
			"type":"VEC3"
		},
		{
			"bufferView":13,
			"componentType":5126,
			"count":6502,
			"type":"VEC3"
		},
		{
			"bufferView":14,
			"componentType":5126,
			"count":6502,
			"type":"VEC2"
		},
		{
			"bufferView":15,
			"componentType":5123,
			"count":36864,
			"type":"SCALAR"
		},
		{
			"bufferView":16,
			"componentType":5126,
			"count":6502,
			"max":[
				0.5658153295516968,
				0.023339273408055305,
				0.2606937289237976
			],
			"min":[
				-0.5657700300216675,
				-0.023439621552824974,
				-0.2608942985534668
			],
			"type":"VEC3"
		},
		{
			"bufferView":17,
			"componentType":5126,
			"count":6502,
			"type":"VEC3"
		},
		{
			"bufferView":18,
			"componentType":5126,
			"count":6502,
			"type":"VEC2"
		},
		{
			"bufferView":19,
			"componentType":5123,
			"count":36864,
			"type":"SCALAR"
		},
		{
			"bufferView":20,
			"componentType":5126,
			"count":6502,
			"max":[
				0.5382207036018372,
				0.09322268515825272,
				0.23326298594474792
			],
			"min":[
				-0.5384529232978821,
				-0.0934288278222084,
				-0.23319008946418762
			],
			"type":"VEC3"
		},
		{
			"bufferView":21,
			"componentType":5126,
			"count":6502,
			"type":"VEC3"
		},
		{
			"bufferView":22,
			"componentType":5126,
			"count":6502,
			"type":"VEC2"
		},
		{
			"bufferView":23,
			"componentType":5123,
			"count":36864,
			"type":"SCALAR"
		},
		{
			"bufferView":24,
			"componentType":5126,
			"count":6502,
			"max":[
				0.5583416819572449,
				0.014669428579509258,
				0.2507370412349701
			],
			"min":[
				-0.5582886934280396,
				-0.018673628568649292,
				-0.2507422864437103
			],
			"type":"VEC3"
		},
		{
			"bufferView":25,
			"componentType":5126,
			"count":6502,
			"type":"VEC3"
		},
		{
			"bufferView":26,
			"componentType":5126,
			"count":6502,
			"type":"VEC2"
		},
		{
			"bufferView":27,
			"componentType":5123,
			"count":36864,
			"type":"SCALAR"
		},
		{
			"bufferView":28,
			"componentType":5126,
			"count":6502,
			"max":[
				0.5856422781944275,
				0.03134665638208389,
				0.2756851315498352
			],
			"min":[
				-0.5856755375862122,
				-0.031331293284893036,
				-0.2755630910396576
			],
			"type":"VEC3"
		},
		{
			"bufferView":29,
			"componentType":5126,
			"count":6502,
			"type":"VEC3"
		},
		{
			"bufferView":30,
			"componentType":5126,
			"count":6502,
			"type":"VEC2"
		},
		{
			"bufferView":31,
			"componentType":5123,
			"count":36864,
			"type":"SCALAR"
		},
		{
			"bufferView":32,
			"componentType":5126,
			"count":258,
			"max":[
				0.4819798767566681,
				0.29597988724708557,
				0.23880000412464142
			],
			"min":[
				-0.4819798767566681,
				0.15919999778270721,
				0.23319999873638153
			],
			"type":"VEC3"
		},
		{
			"bufferView":33,
			"componentType":5126,
			"count":258,
			"type":"VEC3"
		},
		{
			"bufferView":34,
			"componentType":5126,
			"count":258,
			"type":"VEC2"
		},
		{
			"bufferView":35,
			"componentType":5123,
			"count":612,
			"type":"SCALAR"
		},
		{
			"bufferView":36,
			"componentType":5126,
			"count":258,
			"max":[
				0.472979873418808,
				0.28697988390922546,
				0.23880000412464142
			],
			"min":[
				-0.472979873418808,
				0.16820000112056732,
				0.23319999873638153
			],
			"type":"VEC3"
		},
		{
			"bufferView":37,
			"componentType":5126,
			"count":258,
			"type":"VEC3"
		},
		{
			"bufferView":38,
			"componentType":5126,
			"count":258,
			"type":"VEC2"
		},
		{
			"bufferView":39,
			"componentType":5123,
			"count":612,
			"type":"SCALAR"
		},
		{
			"bufferView":40,
			"componentType":5126,
			"count":258,
			"max":[
				0.4819798767566681,
				0.29597988724708557,
				-0.23319999873638153
			],
			"min":[
				-0.4819798767566681,
				0.15919999778270721,
				-0.23880000412464142
			],
			"type":"VEC3"
		},
		{
			"bufferView":41,
			"componentType":5126,
			"count":258,
			"type":"VEC3"
		},
		{
			"bufferView":42,
			"componentType":5126,
			"count":258,
			"type":"VEC2"
		},
		{
			"bufferView":43,
			"componentType":5123,
			"count":612,
			"type":"SCALAR"
		},
		{
			"bufferView":44,
			"componentType":5126,
			"count":258,
			"max":[
				0.472979873418808,
				0.28697988390922546,
				-0.23319999873638153
			],
			"min":[
				-0.472979873418808,
				0.16820000112056732,
				-0.23880000412464142
			],
			"type":"VEC3"
		},
		{
			"bufferView":45,
			"componentType":5126,
			"count":258,
			"type":"VEC3"
		},
		{
			"bufferView":46,
			"componentType":5126,
			"count":258,
			"type":"VEC2"
		},
		{
			"bufferView":47,
			"componentType":5123,
			"count":612,
			"type":"SCALAR"
		}
	],
	"bufferViews":[
		{
			"buffer":0,
			"byteLength":979572,
			"byteOffset":0,
			"target":34962
		},
		{
			"buffer":0,
			"byteLength":979572,
			"byteOffset":979572,
			"target":34962
		},
		{
			"buffer":0,
			"byteLength":653048,
			"byteOffset":1959144,
			"target":34962
		},
		{
			"buffer":0,
			"byteLength":1944000,
			"byteOffset":2612192,
			"target":34963
		},
		{
			"buffer":0,
			"byteLength":179760,
			"byteOffset":4556192,
			"target":34962
		},
		{
			"buffer":0,
			"byteLength":179760,
			"byteOffset":4735952,
			"target":34962
		},
		{
			"buffer":0,
			"byteLength":119840,
			"byteOffset":4915712,
			"target":34962
		},
		{
			"buffer":0,
			"byteLength":45360,
			"byteOffset":5035552,
			"target":34963
		},
		{
			"buffer":0,
			"byteLength":15132,
			"byteOffset":5080912,
			"target":34962
		},
		{
			"buffer":0,
			"byteLength":15132,
			"byteOffset":5096044,
			"target":34962
		},
		{
			"buffer":0,
			"byteLength":10088,
			"byteOffset":5111176,
			"target":34962
		},
		{
			"buffer":0,
			"byteLength":7560,
			"byteOffset":5121264,
			"target":34963
		},
		{
			"buffer":0,
			"byteLength":78024,
			"byteOffset":5128824,
			"target":34962
		},
		{
			"buffer":0,
			"byteLength":78024,
			"byteOffset":5206848,
			"target":34962
		},
		{
			"buffer":0,
			"byteLength":52016,
			"byteOffset":5284872,
			"target":34962
		},
		{
			"buffer":0,
			"byteLength":73728,
			"byteOffset":5336888,
			"target":34963
		},
		{
			"buffer":0,
			"byteLength":78024,
			"byteOffset":5410616,
			"target":34962
		},
		{
			"buffer":0,
			"byteLength":78024,
			"byteOffset":5488640,
			"target":34962
		},
		{
			"buffer":0,
			"byteLength":52016,
			"byteOffset":5566664,
			"target":34962
		},
		{
			"buffer":0,
			"byteLength":73728,
			"byteOffset":5618680,
			"target":34963
		},
		{
			"buffer":0,
			"byteLength":78024,
			"byteOffset":5692408,
			"target":34962
		},
		{
			"buffer":0,
			"byteLength":78024,
			"byteOffset":5770432,
			"target":34962
		},
		{
			"buffer":0,
			"byteLength":52016,
			"byteOffset":5848456,
			"target":34962
		},
		{
			"buffer":0,
			"byteLength":73728,
			"byteOffset":5900472,
			"target":34963
		},
		{
			"buffer":0,
			"byteLength":78024,
			"byteOffset":5974200,
			"target":34962
		},
		{
			"buffer":0,
			"byteLength":78024,
			"byteOffset":6052224,
			"target":34962
		},
		{
			"buffer":0,
			"byteLength":52016,
			"byteOffset":6130248,
			"target":34962
		},
		{
			"buffer":0,
			"byteLength":73728,
			"byteOffset":6182264,
			"target":34963
		},
		{
			"buffer":0,
			"byteLength":78024,
			"byteOffset":6255992,
			"target":34962
		},
		{
			"buffer":0,
			"byteLength":78024,
			"byteOffset":6334016,
			"target":34962
		},
		{
			"buffer":0,
			"byteLength":52016,
			"byteOffset":6412040,
			"target":34962
		},
		{
			"buffer":0,
			"byteLength":73728,
			"byteOffset":6464056,
			"target":34963
		},
		{
			"buffer":0,
			"byteLength":3096,
			"byteOffset":6537784,
			"target":34962
		},
		{
			"buffer":0,
			"byteLength":3096,
			"byteOffset":6540880,
			"target":34962
		},
		{
			"buffer":0,
			"byteLength":2064,
			"byteOffset":6543976,
			"target":34962
		},
		{
			"buffer":0,
			"byteLength":1224,
			"byteOffset":6546040,
			"target":34963
		},
		{
			"buffer":0,
			"byteLength":3096,
			"byteOffset":6547264,
			"target":34962
		},
		{
			"buffer":0,
			"byteLength":3096,
			"byteOffset":6550360,
			"target":34962
		},
		{
			"buffer":0,
			"byteLength":2064,
			"byteOffset":6553456,
			"target":34962
		},
		{
			"buffer":0,
			"byteLength":1224,
			"byteOffset":6555520,
			"target":34963
		},
		{
			"buffer":0,
			"byteLength":3096,
			"byteOffset":6556744,
			"target":34962
		},
		{
			"buffer":0,
			"byteLength":3096,
			"byteOffset":6559840,
			"target":34962
		},
		{
			"buffer":0,
			"byteLength":2064,
			"byteOffset":6562936,
			"target":34962
		},
		{
			"buffer":0,
			"byteLength":1224,
			"byteOffset":6565000,
			"target":34963
		},
		{
			"buffer":0,
			"byteLength":3096,
			"byteOffset":6566224,
			"target":34962
		},
		{
			"buffer":0,
			"byteLength":3096,
			"byteOffset":6569320,
			"target":34962
		},
		{
			"buffer":0,
			"byteLength":2064,
			"byteOffset":6572416,
			"target":34962
		},
		{
			"buffer":0,
			"byteLength":1224,
			"byteOffset":6574480,
			"target":34963
		}
	],
	"samplers":[
		{
			"magFilter":9729,
			"minFilter":9987
		},
		{
			"magFilter":9729,
			"minFilter":9987,
			"wrapS":33071,
			"wrapT":33071
		}
	],
	"buffers":[
		{
			"byteLength":6575704,
			"uri":"beilin-stele.bin"
		}
	]
}
