{"asset":{"generator":"Khronos glTF Blender I/O v5.2.40","version":"2.0"},"scene":0,"scenes":[{"name":"Scene","nodes":[0]}],"nodes":[{"mesh":0,"name":"tripo_node_1d97cdc6-528e-4448-9468-debe7ac7ce26"}],"materials":[{"name":"tripo_material_1d97cdc6-528e-4448-9468-debe7ac7ce26.001","pbrMetallicRoughness":{"baseColorTexture":{"index":0},"metallicFactor":0,"roughnessFactor":0.5}}],"meshes":[{"name":"meshes[0].001","primitives":[{"attributes":{"POSITION":0,"NORMAL":1,"TEXCOORD_0":2},"indices":3,"material":0}]}],"textures":[{"sampler":0,"source":0}],"images":[{"bufferView":4,"mimeType":"image/jpeg","name":"stone+relief+3d+model_basecolor.jpg"}],"accessors":[{"bufferView":0,"componentType":5126,"count":969348,"max":[0.489959716796875,0.430877685546875,0.483306884765625],"min":[-0.47784423828125,-0.40008544921875,-0.483154296875],"type":"VEC3"},{"bufferView":1,"componentType":5126,"count":969348,"type":"VEC3"},{"bufferView":2,"componentType":5126,"count":969348,"type":"VEC2"},{"bufferView":3,"componentType":5125,"count":5632110,"type":"SCALAR"}],"bufferViews":[{"buffer":0,"byteLength":11632176,"byteOffset":0,"target":34962},{"buffer":1,"byteLength":11632176,"byteOffset":0,"target":34962},{"buffer":2,"byteLength":7754784,"byteOffset":0,"target":34962},{"buffer":3,"byteLength":22528440,"byteOffset":0,"target":34963},{"buffer":4,"byteLength":1005999,"byteOffset":0}],"samplers":[{"magFilter":9729,"minFilter":9987}],"buffers":[{"uri":"head-00.bin","byteLength":11632176},{"uri":"head-01.bin","byteLength":11632176},{"uri":"head-02.bin","byteLength":7754784},{"uri":"head-03.bin","byteLength":22528440},{"uri":"head-04.bin","byteLength":1005999}]}